<svg id="app-store" xmlns="http://www.w3.org/2000/svg" xmlns:xlink="http://www.w3.org/1999/xlink" width="242.862" height="71.959" viewBox="0 0 242.862 71.959">
  <defs>
    <linearGradient id="linear-gradient" x1="-1.199" y1="2.436" x2="-1.199" y2="1.535" gradientUnits="objectBoundingBox">
      <stop offset="0" stop-color="#1a1a1a" stop-opacity="0.102"/>
      <stop offset="0.123" stop-color="#212121" stop-opacity="0.153"/>
      <stop offset="0.308" stop-color="#353535" stop-opacity="0.227"/>
      <stop offset="0.532" stop-color="#575757" stop-opacity="0.318"/>
      <stop offset="0.783" stop-color="#858585" stop-opacity="0.42"/>
      <stop offset="1" stop-color="#b3b3b3" stop-opacity="0.51"/>
    </linearGradient>
  </defs>
  <path id="Path_1530" data-name="Path 1530" d="M243.211,65.423a6.893,6.893,0,0,1-6.9,6.892H10.472a6.9,6.9,0,0,1-6.91-6.892V10.462a6.911,6.911,0,0,1,6.91-6.9H236.308a6.9,6.9,0,0,1,6.9,6.9l0,54.961Z" transform="translate(-1.96 -1.959)" fill="#fff"/>
  <path id="Path_1531" data-name="Path 1531" d="M234.35,71.959H8.512A8.512,8.512,0,0,1,0,63.466V8.5A8.518,8.518,0,0,1,8.512,0H234.348a8.522,8.522,0,0,1,8.512,8.5v54.96a8.511,8.511,0,0,1-8.51,8.5Z" fill="#a6a6a6"/>
  <path id="Path_1532" data-name="Path 1532" d="M243.211,65.423a6.893,6.893,0,0,1-6.9,6.892H10.472a6.9,6.9,0,0,1-6.91-6.892V10.462a6.911,6.911,0,0,1,6.91-6.9H236.308a6.9,6.9,0,0,1,6.9,6.9l0,54.961Z" transform="translate(-1.96 -1.959)"/>
  <path id="Path_1533" data-name="Path 1533" d="M82.4,49.288a10.431,10.431,0,0,1,4.97-8.753,10.688,10.688,0,0,0-8.417-4.549c-3.541-.372-6.975,2.118-8.778,2.118-1.84,0-4.617-2.082-7.61-2.021a11.206,11.206,0,0,0-9.432,5.751C49.053,48.894,52.1,59.268,56,64.974c1.955,2.8,4.239,5.915,7.229,5.805,2.925-.119,4.017-1.862,7.547-1.862,3.5,0,4.523,1.862,7.572,1.792,3.139-.049,5.115-2.807,7-5.627a23.064,23.064,0,0,0,3.2-6.519A10.092,10.092,0,0,1,82.4,49.288ZM76.64,32.233a10.265,10.265,0,0,0,2.351-7.358,10.463,10.463,0,0,0-6.764,3.5,9.77,9.77,0,0,0-2.412,7.086A8.642,8.642,0,0,0,76.64,32.233Z" transform="translate(-28.17 -13.688)" fill="#fff"/>
  <path id="Path_1534" data-name="Path 1534" d="M373.074,0H252.108l47.38,71.959h73.586a8.518,8.518,0,0,0,8.512-8.5V8.5A8.52,8.52,0,0,0,373.074,0Z" transform="translate(-138.724)" fill="url(#linear-gradient)"/>
  <g id="Group_1007" data-name="Group 1007" transform="translate(76.372 32.389)">
    <path id="Path_1535" data-name="Path 1535" d="M190.034,96.318h-4.088l-2.239-7.034h-7.783l-2.133,7.034h-3.98l7.713-23.947h4.763Zm-7-9.985-2.025-6.253q-.321-.958-1.208-4.511h-.072q-.356,1.528-1.138,4.511L176.6,86.332Zm26.8,1.139a9.777,9.777,0,0,1-2.394,6.962,7.02,7.02,0,0,1-5.324,2.275,5.33,5.33,0,0,1-4.932-2.449v9.06h-3.838V84.726q0-2.767-.142-5.676h3.375l.214,2.737h.072a6.828,6.828,0,0,1,10.928-.678,9.547,9.547,0,0,1,2.041,6.363Zm-3.91.14a7.117,7.117,0,0,0-1.138-4.159,3.932,3.932,0,0,0-3.341-1.7,3.991,3.991,0,0,0-2.576.941,4.365,4.365,0,0,0-1.51,2.471,5.009,5.009,0,0,0-.178,1.168V89.21a4.619,4.619,0,0,0,1.156,3.181,3.837,3.837,0,0,0,3,1.3,3.933,3.933,0,0,0,3.375-1.67A7.348,7.348,0,0,0,205.92,87.612Zm23.776-.14a9.777,9.777,0,0,1-2.394,6.962,7.024,7.024,0,0,1-5.326,2.275,5.33,5.33,0,0,1-4.932-2.449v9.06h-3.837V84.726q0-2.767-.142-5.676h3.375l.214,2.737h.072a6.83,6.83,0,0,1,10.929-.678,9.557,9.557,0,0,1,2.041,6.363Zm-3.911.14a7.118,7.118,0,0,0-1.139-4.159,3.926,3.926,0,0,0-3.337-1.7,4.008,4.008,0,0,0-2.579.941,4.362,4.362,0,0,0-1.508,2.471,5.126,5.126,0,0,0-.18,1.168V89.21a4.635,4.635,0,0,0,1.154,3.181,3.845,3.845,0,0,0,3.006,1.3,3.929,3.929,0,0,0,3.375-1.67A7.348,7.348,0,0,0,225.785,87.612ZM251.907,89.6a6.4,6.4,0,0,1-2.129,4.976,9.44,9.44,0,0,1-6.525,2.1,11.392,11.392,0,0,1-6.2-1.492l.887-3.2a10.678,10.678,0,0,0,5.544,1.494,5.231,5.231,0,0,0,3.375-.977,3.192,3.192,0,0,0,1.211-2.609,3.344,3.344,0,0,0-1-2.453,9.245,9.245,0,0,0-3.3-1.846q-6.291-2.346-6.293-6.86a6.056,6.056,0,0,1,2.221-4.832,8.784,8.784,0,0,1,5.882-1.884,11.627,11.627,0,0,1,5.438,1.137l-.963,3.127a9.51,9.51,0,0,0-4.6-1.1,4.681,4.681,0,0,0-3.175,1,2.847,2.847,0,0,0-.963,2.17,2.932,2.932,0,0,0,1.1,2.345,12.43,12.43,0,0,0,3.481,1.846,11.8,11.8,0,0,1,4.548,2.912,6.067,6.067,0,0,1,1.463,4.153Zm12.72-7.671H260.4v8.384q0,3.2,2.239,3.2a6.743,6.743,0,0,0,1.7-.178l.106,2.913a8.7,8.7,0,0,1-2.984.425,4.6,4.6,0,0,1-3.555-1.387q-1.277-1.387-1.28-4.655v-8.7h-2.52V79.043h2.52V75.881l3.769-1.137v4.3h4.23v2.886Zm19.047,5.613a9.471,9.471,0,0,1-2.275,6.537,8.111,8.111,0,0,1-6.325,2.629,7.732,7.732,0,0,1-6.06-2.519,9.183,9.183,0,0,1-2.257-6.359,9.394,9.394,0,0,1,2.327-6.572,8.069,8.069,0,0,1,6.275-2.559,7.894,7.894,0,0,1,6.111,2.523,9.064,9.064,0,0,1,2.2,6.32Zm-3.978.088a7.731,7.731,0,0,0-1.028-4.074A3.8,3.8,0,0,0,275.22,81.5a3.854,3.854,0,0,0-3.519,2.057,7.858,7.858,0,0,0-1.03,4.146,7.708,7.708,0,0,0,1.03,4.076,3.936,3.936,0,0,0,6.935-.034,7.761,7.761,0,0,0,1.06-4.114Zm16.457-5.206a6.68,6.68,0,0,0-1.21-.106,3.622,3.622,0,0,0-3.128,1.53,5.76,5.76,0,0,0-.958,3.41v9.06h-3.837V84.488q.005-2.719-.112-5.436h3.342l.14,3.3h.106a5.924,5.924,0,0,1,1.919-2.737,4.641,4.641,0,0,1,2.774-.925,6.162,6.162,0,0,1,.959.07Zm17.163,4.443a9,9,0,0,1-.14,1.74H301.664a5.007,5.007,0,0,0,1.67,3.912,5.712,5.712,0,0,0,3.766,1.206,12.736,12.736,0,0,0,4.658-.815l.6,2.661a14.4,14.4,0,0,1-5.79,1.067,8.4,8.4,0,0,1-6.311-2.361,8.728,8.728,0,0,1-2.291-6.341,9.889,9.889,0,0,1,2.135-6.5,7.355,7.355,0,0,1,6.039-2.769,6.437,6.437,0,0,1,5.654,2.769A9.318,9.318,0,0,1,313.316,86.867Zm-3.659-1a5.193,5.193,0,0,0-.745-2.949,3.351,3.351,0,0,0-3.056-1.6,3.639,3.639,0,0,0-3.055,1.564,5.73,5.73,0,0,0-1.136,2.984l7.992,0Z" transform="translate(-169.812 -72.016)" fill="#fff"/>
  </g>
  <g id="Group_1008" data-name="Group 1008" transform="translate(78.618 11.792)">
    <path id="Path_1536" data-name="Path 1536" d="M177.566,38.7a24.51,24.51,0,0,1-2.759-.14V26.986a20.9,20.9,0,0,1,3.249-.245c4.4,0,6.428,2.165,6.428,5.694C184.483,36.505,182.089,38.7,177.566,38.7Zm.644-10.478a7.7,7.7,0,0,0-1.519.122v8.8a9.961,9.961,0,0,0,1.274.052c2.884,0,4.525-1.641,4.525-4.715C182.49,29.746,181.005,28.226,178.21,28.226ZM190.8,38.792a4.04,4.04,0,0,1-4.088-4.366c0-2.62,1.642-4.488,4.228-4.488a4.008,4.008,0,0,1,4.088,4.349,4.158,4.158,0,0,1-4.228,4.5Zm.072-7.475c-1.363,0-2.236,1.274-2.236,3.056,0,1.747.891,3.021,2.218,3.021s2.218-1.362,2.218-3.057C193.07,32.609,192.2,31.317,190.871,31.317Zm18.3-1.2L206.516,38.6h-1.73l-1.1-3.685A27.933,27.933,0,0,1,203,32.174h-.036a18.37,18.37,0,0,1-.68,2.741l-1.17,3.685H199.37l-2.5-8.486h1.939l.961,4.034q.34,1.441.576,2.724h.036c.139-.714.365-1.607.7-2.706l1.206-4.051h1.537l1.154,3.964c.279.961.506,1.9.682,2.795h.05a24.427,24.427,0,0,1,.576-2.795l1.031-3.964,1.852,0Zm9.774,8.486h-1.886V33.727c0-1.5-.576-2.253-1.712-2.253a1.959,1.959,0,0,0-1.886,2.078V38.6h-1.886V32.539c0-.75-.018-1.555-.07-2.427h1.66l.088,1.31h.052a3.05,3.05,0,0,1,2.691-1.483c1.782,0,2.952,1.362,2.952,3.579l0,5.082Zm5.2,0h-1.888V26.219h1.888Zm6.878.193a4.041,4.041,0,0,1-4.088-4.366c0-2.62,1.642-4.488,4.226-4.488a4.007,4.007,0,0,1,4.088,4.349,4.157,4.157,0,0,1-4.226,4.5Zm.07-7.475c-1.363,0-2.236,1.274-2.236,3.056,0,1.747.893,3.021,2.216,3.021s2.218-1.362,2.218-3.057C233.294,32.609,232.423,31.317,231.094,31.317ZM242.688,38.6l-.137-.977h-.05a2.9,2.9,0,0,1-2.482,1.17,2.468,2.468,0,0,1-2.6-2.5c0-2.095,1.816-3.178,4.961-3.178V32.96c0-1.117-.592-1.677-1.762-1.677a3.973,3.973,0,0,0-2.218.63l-.383-1.24a5.427,5.427,0,0,1,2.914-.734c2.218,0,3.337,1.17,3.337,3.511v3.126a12.82,12.82,0,0,0,.122,2.026Zm-.259-4.227c-2.1,0-3.146.507-3.146,1.711a1.2,1.2,0,0,0,1.294,1.326,1.806,1.806,0,0,0,1.852-1.727Zm11,4.227-.088-1.362h-.052a2.846,2.846,0,0,1-2.725,1.555c-2.047,0-3.562-1.8-3.562-4.331,0-2.654,1.571-4.524,3.717-4.524a2.551,2.551,0,0,1,2.394,1.153h.038V26.219h1.888V36.312c0,.821.02,1.589.07,2.287h-1.679Zm-.279-4.994a2.053,2.053,0,0,0-1.987-2.2c-1.4,0-2.254,1.24-2.254,2.985,0,1.711.887,2.883,2.216,2.883a2.118,2.118,0,0,0,2.025-2.253V33.606Zm13.86,5.186a4.039,4.039,0,0,1-4.086-4.366c0-2.62,1.642-4.488,4.226-4.488a4.007,4.007,0,0,1,4.088,4.349,4.156,4.156,0,0,1-4.228,4.5Zm.07-7.475c-1.361,0-2.234,1.274-2.234,3.056,0,1.747.891,3.021,2.216,3.021s2.218-1.362,2.218-3.057c0-1.727-.869-3.02-2.2-3.02Zm14.3,7.282h-1.888V33.727c0-1.5-.576-2.253-1.712-2.253a1.958,1.958,0,0,0-1.885,2.078V38.6h-1.888V32.539c0-.75-.018-1.555-.07-2.427h1.66l.088,1.31h.052a3.048,3.048,0,0,1,2.689-1.485c1.782,0,2.954,1.362,2.954,3.579Zm12.691-7.072H292v4.121c0,1.049.364,1.573,1.1,1.573a3.717,3.717,0,0,0,.837-.088l.052,1.432a4.179,4.179,0,0,1-1.463.211c-1.487,0-2.376-.821-2.376-2.969V31.528h-1.238V30.113h1.238V28.559L292,28v2.113h2.075Zm9.986,7.072h-1.885V33.763c0-1.519-.574-2.287-1.712-2.287a1.85,1.85,0,0,0-1.888,2.008V38.6h-1.885V26.219h1.885v5.1h.038a2.862,2.862,0,0,1,2.552-1.38c1.8,0,2.894,1.4,2.894,3.615V38.6Zm10.231-3.79h-5.661a2.436,2.436,0,0,0,2.675,2.514,6.377,6.377,0,0,0,2.288-.4l.293,1.31a7.088,7.088,0,0,1-2.848.524,3.94,3.94,0,0,1-4.226-4.277c0-2.6,1.609-4.558,4.014-4.558,2.169,0,3.53,1.607,3.53,4.034a3.632,3.632,0,0,1-.065.855Zm-1.73-1.344c0-1.31-.661-2.235-1.867-2.235a2.237,2.237,0,0,0-2.063,2.235h3.929Z" transform="translate(-174.806 -26.219)" fill="#fff"/>
  </g>
</svg>
