<svg xmlns="http://www.w3.org/2000/svg" width="70.66" height="71.462" viewBox="0 0 70.66 71.462">
  <g id="envelope-icon" transform="translate(-0.5 -0.5)">
    <g id="Group_994" data-name="Group 994" opacity="0.5">
      <path id="Path_1473" data-name="Path 1473" d="M52.9,34.25l-20.73,8.12H5.351a3.327,3.327,0,0,1-3.21-2.47,2.6,2.6,0,0,0,.1.25c.03.09.07.17.1.25a3.467,3.467,0,0,0,.95,1.2l.14.03,18.76-20.94,4.78,3.28a7.9,7.9,0,0,0,9.01,0l4.78-3.28Z" fill="none" stroke="#fff" stroke-linejoin="round" stroke-width="3"/>
      <path id="Path_1474" data-name="Path 1474" d="M60.94,6.78V31.1l-8.03,3.15H52.9L40.76,20.69Z" fill="none" stroke="#fff" stroke-linejoin="round" stroke-width="3"/>
      <path id="Path_1475" data-name="Path 1475" d="M22.19,20.69,3.43,41.64l-.14-.03a3.588,3.588,0,0,1-.95-1.2c-.07-.16-.14-.33-.2-.5a4.816,4.816,0,0,1-.11-.52,1.361,1.361,0,0,0-.02-.21V6.78L22.2,20.69Z" fill="none" stroke="#fff" stroke-linejoin="round" stroke-width="3"/>
      <path id="Path_1476" data-name="Path 1476" d="M60.94,5.45V6.78L40.76,20.69l-4.78,3.29a7.918,7.918,0,0,1-9.02,0l-4.78-3.29L2,6.78V5.45A3.5,3.5,0,0,1,3.01,3.01,3.458,3.458,0,0,1,5.46,2H57.48a3.5,3.5,0,0,1,2.45,1.01,3.446,3.446,0,0,1,.99,2.1v.34Z" fill="none" stroke="#fff" stroke-linejoin="round" stroke-width="3"/>
    </g>
    <g id="Group_995" data-name="Group 995">
      <path id="Path_1477" data-name="Path 1477" d="M69.551,27.87l-8.61,7.09-4.25,3.51h-.01l-4.73,3.9h-.01l-9.61,7.92-1.99,12.12-5.95-14.24.11.03,9.99-5.83L54.8,36.36l5.51-3.22.63-.36v-.01l6.87-4.01.03-.01.07-.04Z" fill="none" stroke="#eda606" stroke-linejoin="round" stroke-width="3"/>
      <path id="Path_1478" data-name="Path 1478" d="M69.66,27.69l-1.75,1.02-.07.04-.03.01-6.87,4.01-.63.37L54.8,36.36,44.49,42.37,34.5,48.2l-.11-.03L24.15,45.51l8.02-3.14L52.9,34.25h.01l8.03-3.15Z" fill="none" stroke="#eda606" stroke-linejoin="round" stroke-width="3"/>
      <path id="Path_1480" data-name="Path 1480" d="M69.65,27.82,59.26,54.9l-10.6-2.89-1.18-.32-5.15-1.4,9.61-7.92h.01l4.73-3.9h.01l4.25-3.51,8.61-7.09Z" fill="none" stroke="#eda606" stroke-linejoin="round" stroke-width="3"/>
      <path id="Path_1481" data-name="Path 1481" d="M31.61,56.35,15.34,69.85" fill="none" stroke="#eda606" stroke-linecap="round" stroke-linejoin="round" stroke-width="3"/>
      <path id="Path_1482" data-name="Path 1482" d="M32.96,62.91l-5.2,4.67" fill="none" stroke="#eda606" stroke-linecap="round" stroke-linejoin="round" stroke-width="3"/>
      <path id="Path_1527" data-name="Path 1527" d="M48.66,52.01l-8.32,10.4,1.99-12.12,5.15,1.4Z" fill="none" stroke="#eda606" stroke-linejoin="round" stroke-width="3"/>
    </g>
  </g>
</svg>
