<svg xmlns="http://www.w3.org/2000/svg" width="67.981" height="69.6" viewBox="0 0 67.981 69.6">
  <g id="location-icon" transform="translate(-0.966)">
    <g id="Group_989" data-name="Group 989" opacity="0.5">
      <path id="Path_1521" data-name="Path 1521" d="M65.91,66.88l-3.06-1.72L51.64,58.85,46.6,35.15l6.17,3.48,5.17,2.9a1.068,1.068,0,0,1,.45.53l8.96,23.59A1.007,1.007,0,0,1,65.91,66.88Z" fill="none" stroke="#fff" stroke-linejoin="round" stroke-width="3"/>
      <path id="Path_1522" data-name="Path 1522" d="M51.651,58.85h-.01l-16.19,9.12a.947.947,0,0,1-.49.13V51.86h.02a.974.974,0,0,0,.24-.02,2.121,2.121,0,0,0,.51-.13,2.218,2.218,0,0,0,.42-.25.7.7,0,0,0,.19-.16,1.954,1.954,0,0,0,.32-.38c.01,0,5.91-9.36,9.95-15.77L50.3,52.51Z" fill="none" stroke="#fff" stroke-linejoin="round" stroke-width="3"/>
      <path id="Path_1523" data-name="Path 1523" d="M34.959,51.86V68.1h-.01a.947.947,0,0,1-.49-.13L18.27,58.85,23.3,35.16h.01l3.46,5.49,6.49,10.27a1.429,1.429,0,0,0,.14.2c.05.06.1.11.15.16a.864.864,0,0,0,.14.13.444.444,0,0,0,.11.08.991.991,0,0,0,.17.11,1.505,1.505,0,0,0,.22.11,2.25,2.25,0,0,0,.24.08,1.089,1.089,0,0,0,.26.05,2.112,2.112,0,0,0,.26.02Z" fill="none" stroke="#fff" stroke-linejoin="round" stroke-width="3"/>
      <path id="Path_1524" data-name="Path 1524" d="M23.311,35.15l-5.04,23.7L4,66.88a1,1,0,0,1-1.43-1.23l8.95-23.59a1.068,1.068,0,0,1,.45-.53Z" fill="none" stroke="#fff" stroke-linecap="round" stroke-linejoin="round" stroke-width="3"/>
    </g>
    <g id="Group_990" data-name="Group 990">
      <path id="Path_1525" data-name="Path 1525" d="M52.52,15.1a15.112,15.112,0,0,0-.46-1.49A18.129,18.129,0,0,0,45.1,4.6a17.8,17.8,0,0,0-3-1.64,1.04,1.04,0,0,0-.2-.08,18.4,18.4,0,0,0-2.44-.82c-.28-.07-.56-.13-.85-.19-.58-.12-1.17-.21-1.77-.28-.31-.04-.63-.06-.95-.07h-.2c-.25-.01-.49-.02-.73-.02-.31,0-.62.01-.93.02a9.233,9.233,0,0,0-.93.07c-.46.05-.91.11-1.36.19s-.88.18-1.31.29h-.01c-.44.11-.86.23-1.28.38s-.84.3-1.24.47h-.01a17.989,17.989,0,0,0-5.91,4.05c-.3.31-.59.62-.88.95-.27.34-.54.68-.8,1.03v.01a19.831,19.831,0,0,0-1.69,2.8c-.28.61-.54,1.22-.76,1.85q-.12.315-.21.63a18.454,18.454,0,0,0-.81,5.39c0,.66.04,1.32.1,1.97a17.666,17.666,0,0,0,.31,1.91,18.218,18.218,0,0,0,1.19,3.59c.17.38.36.75.55,1.12s.41.72.63,1.07l7.16,11.36,6.49,10.27a1.428,1.428,0,0,0,.14.2c.05.06.1.11.15.16a.863.863,0,0,0,.14.13.444.444,0,0,0,.11.08.991.991,0,0,0,.17.11,1.505,1.505,0,0,0,.22.11,2.25,2.25,0,0,0,.24.08,1.089,1.089,0,0,0,.26.05,2.112,2.112,0,0,0,.26.02h.03a.974.974,0,0,0,.24-.02,2.121,2.121,0,0,0,.51-.13,2.218,2.218,0,0,0,.42-.25.7.7,0,0,0,.19-.16,1.954,1.954,0,0,0,.32-.38c.01,0,5.91-9.36,9.95-15.77,2.1-3.33,3.7-5.86,3.7-5.86A18.208,18.208,0,0,0,52.52,15.1ZM34.95,27.32a7.69,7.69,0,1,1,7.7-7.69A7.693,7.693,0,0,1,34.95,27.32Z" fill="none" stroke="#eda606" stroke-miterlimit="10" stroke-width="3"/>
      <path id="Path_1526" data-name="Path 1526" d="M42.65,19.63a7.7,7.7,0,1,1-7.7-7.69A7.695,7.695,0,0,1,42.65,19.63Z" fill="none" stroke="#eda606" stroke-miterlimit="10" stroke-width="3"/>
    </g>
  </g>
</svg>
