<svg id="logo" xmlns="http://www.w3.org/2000/svg" width="272.447" height="68.662" viewBox="0 0 272.447 68.662">
  <g id="Group_866" data-name="Group 866" transform="translate(0 8.404)">
    <g id="Group_935" data-name="Group 935" transform="translate(0 0)">
      <path id="Path_1461" data-name="Path 1461" d="M105.19,38.572a3.243,3.243,0,0,0-.284-.991c-.011-.039-.034-.071-.045-.111-.011-.023-.031-.047-.043-.07a3.642,3.642,0,0,0-3.346-1.73c-.181-.016-.362-.016-.551-.016H96.457c-.5,0-1.006,0-1.513-.008H85.792c-.51,0-1.014,0-1.521.008H79.805c-.188,0-.37,0-.559.016A10.189,10.189,0,0,0,74.11,37.4l-.107.07-.166.111a13.817,13.817,0,0,0-1.3.991,11.707,11.707,0,0,0-2.814,3.538L59.237,62.455c-.044.087-.081.174-.114.252l0,.007c-.17.33-.329.653-.487.975a7.379,7.379,0,0,0-.732,2.123c-.008.047-.017.094-.025.141a.72.72,0,0,1-.01.126.4.4,0,0,1,0,.055,3.209,3.209,0,0,0,.544,2.225c0,.007,0,.007,0,.007a3.035,3.035,0,0,0,1.7,1.243,3.633,3.633,0,0,0,.442.117l.106.024.129.024h.007l.161.024a37.435,37.435,0,0,0,.338.031c.058.008.114.008.172.016h.181a.936.936,0,0,0,.153.008q10.938-.012,21.871,0c.063,0,.13-.008.193-.008h.181c.067-.007.13-.007.189-.016a1.525,1.525,0,0,0,.188-.016,1.439,1.439,0,0,0,.174-.016h.024l.169-.024h.008l.153-.024.13-.024c.181-.031.367-.07.556-.117a10.452,10.452,0,0,0,2.982-1.243c.008,0,.008,0,.021-.007a11.663,11.663,0,0,0,4.583-4.67c.166-.322.336-.637.5-.959.052-.086.108-.18.157-.275L104.358,42.11a6.075,6.075,0,0,0,.832-3.538m-20.6,22.084H80.535l1.9-9.583-7.964,9.583H70.417l3.439-15.818h4.371l-2.262,9.718,7.923-9.718H87.8l-2.1,9.749,7.734-9.749h3.97Z" transform="translate(-30.754 -35.647)" fill="#000056"/>
      <path id="Path_1462" data-name="Path 1462" d="M41.692,47.734H61.815q1.158-2.247,2.314-4.494a15.145,15.145,0,0,1,.789-1.353H44.7a5.608,5.608,0,0,0-4.429,2.923,2.335,2.335,0,0,0-.208,2.067,1.676,1.676,0,0,0,1.625.856" transform="translate(-27.513 -36.775)" fill="#000056"/>
      <path id="Path_1463" data-name="Path 1463" d="M56.855,54.3H29.574a5.608,5.608,0,0,0-4.429,2.923,2.333,2.333,0,0,0-.209,2.067,1.678,1.678,0,0,0,1.626.856H53.846L56.855,54.3" transform="translate(-24.779 -39.017)" fill="#000056"/>
      <path id="Path_1464" data-name="Path 1464" d="M53.165,68.562l0-.011.144-.282c.043-.1.1-.218.166-.348l.828-1.607.222-.434H43.74A5.608,5.608,0,0,0,39.311,68.8,2.33,2.33,0,0,0,39.1,70.87a1.677,1.677,0,0,0,1.625.856h11.2a10.472,10.472,0,0,1,.918-2.538l.315-.627" transform="translate(-27.339 -41.11)" fill="#000056"/>
    </g>
    <path id="Path_1465" data-name="Path 1465" d="M117.259,81.472a6.172,6.172,0,0,0-1.453-4.338c-1.818-2.051-4.468-3.095-8.228-2.738.1-.293.2-.562.283-.828.33-1.014.642-2.025.989-3.043a32.37,32.37,0,0,0,1.113-4.081c.084-.426.149-.846.254-1.275a21.622,21.622,0,0,0,.56-4.131c.062-1.229-.026-2.4-.039-3.6a1.43,1.43,0,0,1,.1-.351l2.481.443c2.719-2.311,5.048-6.207,4.425-8.59-.067,0-.141-.011-.218-.011-3.167,0-6.328-.013-9.506.007a5.8,5.8,0,0,0-3.428,1.337c-2,1.52-2.8,3.467-1.9,4.645a3.063,3.063,0,0,0,2.144,1.038,2.191,2.191,0,0,1,.477.17c-.465,1.2-.885,2.319-1.336,3.444-.412,1.027-.851,2.057-1.291,3.087-.157.37-.376.744-.53,1.112-.668,1.605-1.706,3.2-2.54,4.8a2.138,2.138,0,0,1-.148.234c-.78,1.111-1.568,2.219-2.34,3.333a29.656,29.656,0,0,1-8.709,7.908,23.274,23.274,0,0,1-5.52,2.272,24.826,24.826,0,0,1-3.96.665,13.153,13.153,0,0,1-1.4.007c.079-.224.143-.448.243-.674A16.093,16.093,0,0,1,80.7,78.288,32.233,32.233,0,0,0,82.984,75.5a9.171,9.171,0,0,0,1.027-1.955h-.667l-5.452-.006q-7.856-.009-15.709-.019-3.984,0-7.964-.022a2.424,2.424,0,0,0-1.254.29c-.813.433-1.644.8-2.453,1.24a24.169,24.169,0,0,0-7.6,6.7,35.624,35.624,0,0,0-2.943,4.705c-.195.36-.375.721-.583,1.125h8.508l-.021.041c-.114.22-.219.438-.316.655-2.55,5.6-.185,10.043,5.5,10.043,5.909,0,13.167-4.79,16.211-10.7l.021-.041H79.827c.106-.011.212-.025.318-.04a21.249,21.249,0,0,0,3.519-.595c.866-.267,1.732-.468,2.6-.824a15.434,15.434,0,0,0,3.768-2.252c.21-.169.447-.309.672-.462-.465.726-1.034,1.39-1.479,2.071a16.155,16.155,0,0,0-1.2,2.1h2.91l-.021.041c-.114.22-.219.438-.316.655-2.549,5.6-.185,10.043,5.5,10.043,5.908,0,13.166-4.79,16.211-10.7l.02-.041h3.214a15.273,15.273,0,0,0,1.718-6.089m-54.2,6.13c-1.276,2.476-4.319,4.485-6.8,4.485a3.965,3.965,0,0,1-.7-.059,2.082,2.082,0,0,1-.258-.057.7.7,0,0,1-.1-.025,1.872,1.872,0,0,1-.181-.061c-.066-.025-.129-.05-.191-.079-.031-.014-.063-.028-.092-.044s-.076-.04-.113-.061c-.057-.034-.115-.069-.169-.107-1.063-.745-1.276-2.252-.381-3.991l.021-.041h8.971Zm43.035,0c-1.276,2.476-4.319,4.485-6.795,4.485a3.968,3.968,0,0,1-.7-.059,2.082,2.082,0,0,1-.258-.057.7.7,0,0,1-.1-.025,1.781,1.781,0,0,1-.18-.061c-.066-.025-.13-.05-.192-.079-.031-.014-.063-.028-.092-.044s-.075-.04-.113-.061c-.057-.034-.115-.069-.169-.107-1.063-.745-1.276-2.252-.381-3.991l.021-.041h8.971Z" transform="translate(-27.418 -38.046)" fill="#eda606"/>
  </g>
  <path id="Path_1469" data-name="Path 1469" d="M234.119,37.179h-10.76L220.715,47.1h10.759Z" transform="translate(-60.184 -27.519)" fill="#eda606"/>
  <g id="Group_934" data-name="Group 934" transform="translate(108.853)">
    <path id="Path_1466" data-name="Path 1466" d="M206.409,53.329,188.046,86.085l-.478.864-2.178,3.983h-9.056V71.692l-10.051,19.24H157.64v-37.6h9.441V72.648l9.786-19.319h8.816V72.648l9.972-19.319Z" transform="translate(-157.64 -30.437)" fill="#000056"/>
    <path id="Path_1467" data-name="Path 1467" d="M298.207,48.187c-4.142,0-8.378.438-12.521.7L289.3,35.48l-7.755-10.091L265.49,85.882h10.237l8.02-29.516h9.52l-7.676,29.413,8.923,8.272s7.729-29.8,9.415-37.194a30.526,30.526,0,0,0,.81-4.142c0-3.651-3.531-4.527-6.532-4.527" transform="translate(-177.128 -25.389)" fill="#000056"/>
    <path id="Path_1468" data-name="Path 1468" d="M342.456,53.329H326.5c-3.8,0-7.236,1.394-8.206,5.391-1.314,4.872-7.05,24.019-7.05,27.763,0,3.493,3.173,4.448,6.254,4.448h15.881c3.877,0,7.236-1.487,8.378-5.4,1.062-4.09,7.236-24.71,7.236-27.592,0-3.479-3.439-4.607-6.533-4.607m-6.678,23.979c-.664,2.377-1.235,4.369-1.566,5.6a6.184,6.184,0,0,1-.837.053H319.924c1.222-5.165,3.652-13.65,4.727-17.434.492-1.712.9-3.16,1.182-4.209.172-.013.4-.026.664-.026h13.7c-1.195,4.74-3.332,12.228-4.421,16.013" transform="translate(-185.394 -30.438)" fill="#000056"/>
    <path id="Path_1471" data-name="Path 1471" d="M248.324,67.629c-2.244-1.408-4.262-2.576-5.284-3.333l.876-3.054h10.357l7.37-7.914H242.6c-7.063,0-10.144,5.922-10.144,12.362,0,3.067,4.621,6.665,8.883,9.44,2.628,1.713,5.112,3.121,6.28,3.878l-1.062,3.916H234.077l-7.449,8.007h21.258c7.051,0,10.317-6.971,10.317-13.41,0-3.253-5.39-7.051-9.878-9.892" transform="translate(-170.105 -30.438)" fill="#000056"/>
    <path id="Path_1472" data-name="Path 1472" d="M228.141,53.329l-1.461,5.351v.013c-.133.744-.371,1.846-.69,3.213C224.3,69.3,216.577,99.1,216.577,99.1l-8.8-8.165-.106-.093,10.078-37.509Z" transform="translate(-166.679 -30.438)" fill="#000056"/>
  </g>
</svg>
