<svg xmlns="http://www.w3.org/2000/svg" width="71.748" height="71.71" viewBox="0 0 71.748 71.71">
  <g id="phone-icon" transform="translate(-0.5)">
    <g id="Group_997" data-name="Group 997">
      <g id="Group_996" data-name="Group 996">
        <path id="Path_1483" data-name="Path 1483" d="M40.88,23.24a3.235,3.235,0,0,0,.98-1.22,3.16,3.16,0,0,0,.26-1.55,3.118,3.118,0,0,0-1.71-2.5,3.111,3.111,0,0,0-1.53-.33,3.252,3.252,0,0,0-1.49.46,3.161,3.161,0,0,0-1.08,1.13,3.062,3.062,0,0,0-.39,1.51,1.014,1.014,0,0,0,.31.73,1.056,1.056,0,0,0,.73.31,1.014,1.014,0,0,0,.73-.31,1.056,1.056,0,0,0,.31-.73,1.063,1.063,0,0,1,.13-.5,1.015,1.015,0,0,1,.86-.53,1.116,1.116,0,0,1,.51.11,1.01,1.01,0,0,1,.39.35,1.079,1.079,0,0,1,.18.49,1.044,1.044,0,0,1-.09.52,1.091,1.091,0,0,1-.33.41l-2.49,1.87a3.116,3.116,0,0,0-1.25,2.49v1.04a1.014,1.014,0,0,0,.31.73,1.056,1.056,0,0,0,.73.31H41.1a1.014,1.014,0,0,0,.73-.31,1.056,1.056,0,0,0,.31-.73,1.014,1.014,0,0,0-.31-.73,1.056,1.056,0,0,0-.73-.31H37.99a1.039,1.039,0,0,1,.11-.46,1.009,1.009,0,0,1,.31-.37l2.49-1.87Z" fill="#eda606"/>
        <path id="Path_1484" data-name="Path 1484" d="M62.681,18.08a1.064,1.064,0,0,0-.37-.33,1,1,0,0,0-.48-.12h-4.15a1.014,1.014,0,0,0-.73.31,1.056,1.056,0,0,0-.31.73,1.014,1.014,0,0,0,.31.73,1.056,1.056,0,0,0,.73.31h2.66l-2.59,6.9a1.125,1.125,0,0,0-.07.4.86.86,0,0,0,.09.39.88.88,0,0,0,.24.33.963.963,0,0,0,.35.21,1.156,1.156,0,0,0,.37.07,1.036,1.036,0,0,0,.59-.19,1.025,1.025,0,0,0,.38-.49l3.11-8.3a1.038,1.038,0,0,0,.06-.49.93.93,0,0,0-.18-.46Z" fill="#eda606"/>
        <path id="Path_1485" data-name="Path 1485" d="M55.89,14.57a1.081,1.081,0,0,0-.79.09,1.013,1.013,0,0,0-.49.62L50.46,29.81a1.048,1.048,0,0,0,.1.8.979.979,0,0,0,.26.31,1.041,1.041,0,0,0,.36.19.925.925,0,0,0,.29.04.989.989,0,0,0,.62-.21,1.017,1.017,0,0,0,.37-.54l4.15-14.52a1.081,1.081,0,0,0-.09-.79,1.013,1.013,0,0,0-.62-.49Z" fill="#eda606"/>
        <path id="Path_1486" data-name="Path 1486" d="M49.391,23.87h-1.04V18.68a1.042,1.042,0,0,0-.74-.99,1.033,1.033,0,0,0-.65.01.962.962,0,0,0-.51.4L42.3,24.33a.921.921,0,0,0-.17.52,1.124,1.124,0,0,0,.12.54.978.978,0,0,0,.38.4,1.014,1.014,0,0,0,.53.15h3.11v1.04a1.014,1.014,0,0,0,.31.73,1.056,1.056,0,0,0,.73.31,1.014,1.014,0,0,0,.73-.31,1.056,1.056,0,0,0,.31-.73V25.94h1.04a1.014,1.014,0,0,0,.73-.31,1.056,1.056,0,0,0,.31-.73,1.014,1.014,0,0,0-.31-.73,1.056,1.056,0,0,0-.73-.31Zm-3.11,0h-1.17l1.17-1.77Z" fill="#eda606"/>
      </g>
      <path id="Path_1487" data-name="Path 1487" d="M49.39,1.5A21.316,21.316,0,0,0,31.43,34.29l-2.17,8.68,8.68-2.17A21.328,21.328,0,1,0,49.39,1.5Z" fill="none" stroke="#eda606" stroke-linejoin="round" stroke-width="3"/>
    </g>
    <g id="Group_998" data-name="Group 998" opacity="0.5">
      <path id="Path_1488" data-name="Path 1488" d="M21.62,40.51a2.392,2.392,0,0,0,.87-3.04L15.23,22.52a2.193,2.193,0,0,0-.57-.74,2.55,2.55,0,0,0-.82-.46,2.249,2.249,0,0,0-.93-.11,2.177,2.177,0,0,0-.9.26c-.63.31-1.34.71-2.09,1.16l9.43,19.34,2.28-1.44Z" fill="none" stroke="#fff" stroke-linejoin="round" stroke-width="3"/>
      <path id="Path_1489" data-name="Path 1489" d="M28.28,56.04a2.362,2.362,0,0,1-1.36,1.02,2.436,2.436,0,0,1-1.7-.14,24.625,24.625,0,0,1-5.84-4.08A25.218,25.218,0,0,1,15.3,47a2.327,2.327,0,0,1-.14-1.7,2.362,2.362,0,0,1,1.02-1.36l3.15-1.99L9.9,22.61C6.35,24.77,2,28.39,2,32.3v1.18A37.406,37.406,0,0,0,38.73,70.21h1.18c3.91,0,7.53-4.35,9.69-7.9L30.28,52.85l-2,3.18Z" fill="none" stroke="#fff" stroke-linejoin="round" stroke-width="3"/>
      <path id="Path_1490" data-name="Path 1490" d="M49.7,57l-14.95-7.26a2.392,2.392,0,0,0-3.04.87l-1.43,2.25L49.6,62.32c.45-.75.85-1.46,1.16-2.09a2.338,2.338,0,0,0,.26-.9,2.641,2.641,0,0,0-.11-.93,2.4,2.4,0,0,0-.46-.81,2.3,2.3,0,0,0-.74-.57Z" fill="none" stroke="#fff" stroke-linejoin="round" stroke-width="3"/>
    </g>
  </g>
</svg>
