<svg id="play-store" xmlns="http://www.w3.org/2000/svg" xmlns:xlink="http://www.w3.org/1999/xlink" width="242.862" height="71.959" viewBox="0 0 242.862 71.959">
  <defs>
    <linearGradient id="linear-gradient" x1="0.908" y1="1.032" x2="-0.383" y2="0.36" gradientUnits="objectBoundingBox">
      <stop offset="0" stop-color="#00a0ff"/>
      <stop offset="0.007" stop-color="#00a1ff"/>
      <stop offset="0.26" stop-color="#00beff"/>
      <stop offset="0.512" stop-color="#00d2ff"/>
      <stop offset="0.76" stop-color="#00dfff"/>
      <stop offset="1" stop-color="#00e3ff"/>
    </linearGradient>
    <linearGradient id="linear-gradient-2" x1="1.077" y1="0.729" x2="-1.307" y2="0.729" gradientUnits="objectBoundingBox">
      <stop offset="0" stop-color="#ffe000"/>
      <stop offset="0.409" stop-color="#ffbd00"/>
      <stop offset="0.775" stop-color="orange"/>
      <stop offset="1" stop-color="#ff9c00"/>
    </linearGradient>
    <linearGradient id="linear-gradient-3" x1="0.864" y1="-0.023" x2="-0.499" y2="-1.789" gradientUnits="objectBoundingBox">
      <stop offset="0" stop-color="#ff3a44"/>
      <stop offset="1" stop-color="#c31162"/>
    </linearGradient>
    <linearGradient id="linear-gradient-4" x1="-0.186" y1="2.701" x2="0.423" y2="1.909" gradientUnits="objectBoundingBox">
      <stop offset="0" stop-color="#32a071"/>
      <stop offset="0.069" stop-color="#2da771"/>
      <stop offset="0.476" stop-color="#15cf74"/>
      <stop offset="0.801" stop-color="#06e775"/>
      <stop offset="1" stop-color="#00f076"/>
    </linearGradient>
  </defs>
  <path id="Path_1537" data-name="Path 1537" d="M233.867,71.959H8.995A8.908,8.908,0,0,1,0,62.964V8.995A8.908,8.908,0,0,1,8.995,0H233.867a8.908,8.908,0,0,1,8.995,8.995V62.964A8.908,8.908,0,0,1,233.867,71.959Z"/>
  <path id="Path_1538" data-name="Path 1538" d="M233.867,1.439a7.6,7.6,0,0,1,7.556,7.556V62.964a7.6,7.6,0,0,1-7.556,7.556H8.995a7.6,7.6,0,0,1-7.556-7.556V8.995A7.6,7.6,0,0,1,8.995,1.439H233.867m0-1.439H8.995A9.021,9.021,0,0,0,0,8.995V62.964a8.908,8.908,0,0,0,8.995,8.995H233.867a8.908,8.908,0,0,0,8.995-8.995V8.995A9.021,9.021,0,0,0,233.867,0Z" fill="#a6a6a6"/>
  <path id="Path_1539" data-name="Path 1539" d="M52.194,12.837a4.9,4.9,0,0,1-1.259,3.6,5.647,5.647,0,0,1-7.916,0A5.289,5.289,0,0,1,41.4,12.477a5.289,5.289,0,0,1,1.619-3.958A5.289,5.289,0,0,1,46.977,6.9a4.79,4.79,0,0,1,2.159.54A3.917,3.917,0,0,1,50.755,8.7l-.9.9a3.355,3.355,0,0,0-2.878-1.259A3.579,3.579,0,0,0,44.1,9.6a3.706,3.706,0,0,0-1.259,3.058A3.706,3.706,0,0,0,44.1,15.715a4.632,4.632,0,0,0,2.878,1.259,3.946,3.946,0,0,0,3.058-1.259,2.979,2.979,0,0,0,.9-2.159H46.977V12.117h5.217v.72Zm8.275-4.5H55.612v3.418h4.5v1.259h-4.5v3.418h4.857v1.439h-6.3V7.08h6.3Zm5.937,9.535H64.967V8.339H61.908V7.08h7.556V8.339H66.406Zm8.275,0V7.08H76.12V17.874Zm7.556,0H80.8V8.339H77.739V7.08h7.376V8.339H82.057v9.535Zm17.09-1.439a5.647,5.647,0,0,1-7.916,0,5.29,5.29,0,0,1-1.619-3.958,5.29,5.29,0,0,1,1.619-3.958,5.647,5.647,0,0,1,7.916,0,5.29,5.29,0,0,1,1.619,3.958A5.29,5.29,0,0,1,99.327,16.435Zm-6.836-.9a4.245,4.245,0,0,0,2.878,1.259,3.579,3.579,0,0,0,2.878-1.259,4.34,4.34,0,0,0,1.259-3.058,3.706,3.706,0,0,0-1.259-3.058,4.245,4.245,0,0,0-2.878-1.259,3.579,3.579,0,0,0-2.878,1.259,4.34,4.34,0,0,0-1.259,3.058A3.706,3.706,0,0,0,92.491,15.535Zm10.434,2.339V7.08h1.619l5.217,8.455V7.08H111.2V17.874h-1.439l-5.577-8.815v8.815h-1.259Z" transform="translate(33.078 5.513)" fill="#fff" stroke="#fff" stroke-miterlimit="10" stroke-width="0.2"/>
  <path id="Path_1540" data-name="Path 1540" d="M89.672,25.555a7.569,7.569,0,0,0-7.736,7.736,7.678,7.678,0,0,0,7.736,7.736,7.569,7.569,0,0,0,7.736-7.736A7.463,7.463,0,0,0,89.672,25.555Zm0,12.233a4.465,4.465,0,0,1-4.318-4.677,4.465,4.465,0,0,1,4.318-4.677,4.358,4.358,0,0,1,4.318,4.677A4.465,4.465,0,0,1,89.672,37.788ZM72.942,25.555a7.569,7.569,0,0,0-7.736,7.736,7.678,7.678,0,0,0,7.736,7.736,7.569,7.569,0,0,0,7.736-7.736A7.463,7.463,0,0,0,72.942,25.555Zm0,12.233a4.465,4.465,0,0,1-4.318-4.677,4.465,4.465,0,0,1,4.318-4.677,4.358,4.358,0,0,1,4.318,4.677A4.465,4.465,0,0,1,72.942,37.788ZM52.973,27.894v3.238h7.736a6.8,6.8,0,0,1-1.8,4.138,7.963,7.963,0,0,1-5.937,2.339,8.376,8.376,0,0,1-8.455-8.635,8.486,8.486,0,0,1,8.455-8.635,8.92,8.92,0,0,1,5.937,2.339l2.339-2.339a11.528,11.528,0,0,0-8.1-3.238A12.136,12.136,0,0,0,41.1,28.973,12.136,12.136,0,0,0,53.153,40.847a10.353,10.353,0,0,0,8.275-3.418,10.83,10.83,0,0,0,2.878-7.556,6.746,6.746,0,0,0-.18-1.979H52.973Zm81.674,2.519c-.72-1.8-2.519-4.857-6.476-4.857s-7.2,3.058-7.2,7.736a7.528,7.528,0,0,0,7.556,7.736,7.38,7.38,0,0,0,6.3-3.418l-2.519-1.8a4.385,4.385,0,0,1-3.778,2.159,3.9,3.9,0,0,1-3.778-2.339l10.254-4.318-.36-.9Zm-10.434,2.519a4.37,4.37,0,0,1,3.958-4.5,3.182,3.182,0,0,1,2.878,1.619l-6.836,2.878Zm-8.455,7.376h3.418V17.82h-3.418Zm-5.4-13.133a5.923,5.923,0,0,0-4.138-1.8,7.73,7.73,0,0,0-7.376,7.736,7.449,7.449,0,0,0,7.376,7.556,5.165,5.165,0,0,0,3.958-1.8h.18v1.079c0,2.878-1.619,4.5-4.138,4.5a4,4,0,0,1-3.778-2.7l-2.878,1.259a7.422,7.422,0,0,0,6.836,4.5c3.958,0,7.2-2.339,7.2-7.916V25.915h-3.238v1.259ZM106.4,37.788a4.465,4.465,0,0,1-4.318-4.677,4.465,4.465,0,0,1,4.318-4.677c2.339,0,4.138,1.979,4.138,4.677S108.742,37.788,106.4,37.788ZM150.3,17.82h-8.1V40.307h3.418V31.852H150.3a7.025,7.025,0,1,0,0-14.032Zm.18,10.794h-4.857V20.878h4.857a3.951,3.951,0,0,1,3.958,3.778,4.117,4.117,0,0,1-3.958,3.958Zm20.688-3.238c-2.519,0-5.037,1.079-5.937,3.418l3.058,1.259a3.178,3.178,0,0,1,3.058-1.619,3.381,3.381,0,0,1,3.6,2.878v.18a7.136,7.136,0,0,0-3.418-.9c-3.238,0-6.476,1.8-6.476,5.037,0,3.058,2.7,5.037,5.577,5.037a5.062,5.062,0,0,0,4.318-2.159h.18v1.8h3.238V31.672c-.36-3.958-3.418-6.3-7.2-6.3Zm-.36,12.413c-1.079,0-2.7-.54-2.7-1.979,0-1.8,1.979-2.339,3.6-2.339a6.957,6.957,0,0,1,3.058.72A4.19,4.19,0,0,1,170.807,37.788ZM189.7,25.915l-3.778,9.714h-.18l-3.958-9.714h-3.6l5.937,13.672L180.7,47.143h3.418l9.175-21.228h-3.6ZM159.473,40.307h3.418V17.82h-3.418Z" transform="translate(32.838 13.663)" fill="#fff"/>
  <g id="Group_1009" data-name="Group 1009" transform="translate(17.99 12.858)">
    <path id="Path_1541" data-name="Path 1541" d="M10.72,7.5A3.517,3.517,0,0,0,10,10.019V49.776a3.559,3.559,0,0,0,.9,2.519l.18.18L33.387,30.167v-.36Z" transform="translate(-10 -6.865)" fill="url(#linear-gradient)"/>
    <path id="Path_1542" data-name="Path 1542" d="M30.276,31.091,22.9,23.716v-.54L30.276,15.8l.18.18,8.815,5.037c2.519,1.439,2.519,3.778,0,5.217Z" transform="translate(0.307 -0.234)" fill="url(#linear-gradient-2)"/>
    <path id="Path_1543" data-name="Path 1543" d="M40.443,27.556,32.887,20,10.4,42.487c.9.9,2.159.9,3.778.18L40.443,27.556" transform="translate(-9.68 3.122)" fill="url(#linear-gradient-3)"/>
    <path id="Path_1544" data-name="Path 1544" d="M40.443,22.694,14.178,7.763c-1.619-.9-2.878-.72-3.778.18L32.887,30.25l7.556-7.556Z" transform="translate(-9.68 -7.128)" fill="url(#linear-gradient-4)"/>
    <path id="Path_1545" data-name="Path 1545" d="M40.263,24.1,14.178,38.852a2.942,2.942,0,0,1-3.6,0l-.18.18.18.18a2.942,2.942,0,0,0,3.6,0Z" transform="translate(-9.68 6.398)" opacity="0.2"/>
    <path id="Path_1546" data-name="Path 1546" d="M10.72,42.127A3.517,3.517,0,0,1,10,39.609v.18a3.559,3.559,0,0,0,.9,2.519v-.18h-.18ZM49.578,22.339l-8.995,5.037.18.18,8.815-5.037A2.99,2.99,0,0,0,51.377,20C51.377,20.9,50.657,21.619,49.578,22.339Z" transform="translate(-10 3.122)" opacity="0.12"/>
    <path id="Path_1547" data-name="Path 1547" d="M14.5,7.962,49.578,27.93c1.079.72,1.8,1.439,1.8,2.339a2.99,2.99,0,0,0-1.8-2.519L14.5,7.782C11.979,6.343,10,7.422,10,10.3v.18C10,7.782,11.979,6.523,14.5,7.962Z" transform="translate(-10 -7.147)" fill="#fff" opacity="0.25"/>
  </g>
</svg>
